<?xml version="1.0" encoding="iso-8859-1"?>
<!-- Generator: Adobe Illustrator 19.0.0, SVG Export Plug-In . SVG Version: 6.00 Build 0)  -->
<svg version="1.1" id="Layer_1" xmlns="http://www.w3.org/2000/svg" xmlns:xlink="http://www.w3.org/1999/xlink" x="0px" y="0px"
	 viewBox="0 0 511.999 511.999" style="enable-background:new 0 0 511.999 511.999;" xml:space="preserve">
<g>
	<g>
		<path d="M495.376,239.568h-49.089v-24.199c0-9.181-7.443-16.624-16.624-16.624H82.337c-9.181,0-16.624,7.443-16.624,16.624v24.199
			H16.624C7.443,239.568,0,247.011,0,256.192c0,9.181,7.443,16.624,16.624,16.624h49.089v110.247
			c0,40.61,33.039,73.647,73.647,73.647h233.278c40.609,0,73.647-33.039,73.647-73.647V272.816h49.089
			c9.181,0,16.624-7.443,16.624-16.624C511.999,247.011,504.557,239.568,495.376,239.568z M413.037,383.064
			c0,22.276-18.122,40.399-40.399,40.399H139.36c-22.276,0-40.399-18.124-40.399-40.399v-151.07h314.076V383.064z"/>
	</g>
</g>
<g>
	<g>
		<path d="M445.718,151.238c-10.531-39.269-46.281-66.694-86.937-66.694h-51.487c3.566-3.049,5.835-7.573,5.835-12.632
			c0-9.181-7.443-16.624-16.624-16.624h-81.012c-9.181,0-16.624,7.443-16.624,16.624c0,5.059,2.269,9.583,5.835,12.632h-51.487
			c-40.656,0-76.406,27.425-86.937,66.694c-2.831,10.553,5.134,20.931,16.057,20.931h347.324
			C440.587,172.169,448.548,161.788,445.718,151.238z M109.051,138.92c10.542-13.037,26.631-21.127,44.166-21.127h205.564
			c17.535,0,33.623,8.09,44.166,21.127H109.051z"/>
	</g>
</g>
<g>
</g>
<g>
</g>
<g>
</g>
<g>
</g>
<g>
</g>
<g>
</g>
<g>
</g>
<g>
</g>
<g>
</g>
<g>
</g>
<g>
</g>
<g>
</g>
<g>
</g>
<g>
</g>
<g>
</g>
</svg>
